<svg id="Filled" height="512" viewBox="0 0 512 512" width="512" xmlns="http://www.w3.org/2000/svg"><path d="m136 472a8 8 0 0 1 -8-8v-72a8 8 0 0 1 16 0v72a8 8 0 0 1 -8 8z" fill="#95573a"/><path d="m216 472a8 8 0 0 1 -8-8v-72a8 8 0 0 1 16 0v72a8 8 0 0 1 -8 8z" fill="#95573a"/><path d="m304 472a8 8 0 0 1 -8-8v-72a8 8 0 0 1 16 0v72a8 8 0 0 1 -8 8z" fill="#95573a"/><path d="m384 472a8 8 0 0 1 -8-8v-72a8 8 0 0 1 16 0v72a8 8 0 0 1 -8 8z" fill="#95573a"/><rect fill="#7e8589" height="256" rx="16" width="400" x="56" y="24"/><path d="m88 56h336v192h-336z" fill="#414649"/><path d="m456 248v16a16 16 0 0 1 -16 16h-368a16 16 0 0 1 -16-16v-16z" fill="#95573a"/><path d="m88 56h336v192h-336z" fill="#414649"/><path d="m120 232h80v48h-80z" fill="#f7b030"/><path d="m24 328h464v32h-464z" fill="#95573a"/><g fill="#694435"><path d="m48 360h32v128h-32z"/><path d="m440 360h32v128h-32z"/><path d="m112 320h128v72h-128z"/><path d="m280 320h128v72h-128z"/><path d="m112 456h128a0 0 0 0 1 0 0v16a16 16 0 0 1 -16 16h-96a16 16 0 0 1 -16-16v-16a0 0 0 0 1 0 0z" transform="matrix(-1 0 0 -1 352 944)"/><path d="m280 456h128a0 0 0 0 1 0 0v16a16 16 0 0 1 -16 16h-96a16 16 0 0 1 -16-16v-16a0 0 0 0 1 0 0z" transform="matrix(-1 0 0 -1 688 944)"/></g><path d="m440 288a24.027 24.027 0 0 0 24-24v-224a24.027 24.027 0 0 0 -24-24h-368a24.027 24.027 0 0 0 -24 24v224a24.027 24.027 0 0 0 24 24zm-24-48h-208v-8a8 8 0 0 0 -8-8h-80a8 8 0 0 0 -8 8v8h-16v-176h320zm-288 32v-32h64v32zm320-8a8.009 8.009 0 0 1 -8 8h-232v-16h240zm-376-232h368a8.009 8.009 0 0 1 8 8v200h-16v-184a8 8 0 0 0 -8-8h-336a8 8 0 0 0 -8 8v184h-16v-200a8.009 8.009 0 0 1 8-8zm-8 232v-8h48v16h-40a8.009 8.009 0 0 1 -8-8z"/><path d="m488 320h-72a8 8 0 0 0 -8-8h-128a8 8 0 0 0 -8 8h-24a8 8 0 0 0 -8-8h-128a8 8 0 0 0 -8 8h-80a8 8 0 0 0 -8 8v32a8 8 0 0 0 8 8h16v120a8 8 0 0 0 8 8h32a8 8 0 0 0 8-8v-120h16v24a8 8 0 0 0 8 8h16v48a24.027 24.027 0 0 0 -24 24v16a8 8 0 0 0 8 8h128a8 8 0 0 0 8-8v-16a24.027 24.027 0 0 0 -24-24v-48h16a8 8 0 0 0 8-8v-24h24v24a8 8 0 0 0 8 8h16v48a24.027 24.027 0 0 0 -24 24v16a8 8 0 0 0 8 8h128a8 8 0 0 0 8-8v-16a24.027 24.027 0 0 0 -24-24v-48h16a8 8 0 0 0 8-8v-24h16v120a8 8 0 0 0 8 8h32a8 8 0 0 0 8-8v-120h8a8 8 0 0 0 8-8v-32a8 8 0 0 0 -8-8zm-416 160h-16v-112h16zm-40-128v-16h72v16zm200 120v8h-112v-8a8.009 8.009 0 0 1 8-8h96a8.009 8.009 0 0 1 8 8zm-24-24h-64v-48h64zm24-64h-112v-56h112zm16-32v-16h24v16zm152 120v8h-112v-8a8.009 8.009 0 0 1 8-8h96a8.009 8.009 0 0 1 8 8zm-24-24h-64v-48h64zm24-64h-112v-56h112zm64 96h-16v-112h16zm16-128h-64v-16h64z"/><path d="m168 360h16a8 8 0 0 0 0-16h-16a8 8 0 0 0 0 16z"/><path d="m336 360h16a8 8 0 0 0 0-16h-16a8 8 0 0 0 0 16z"/></svg>