<svg id="Capa_1" enable-background="new 0 0 511.977 511.977" height="512" viewBox="0 0 511.977 511.977" width="512" xmlns="http://www.w3.org/2000/svg"><g id="XMLID_1165_"><g id="XMLID_2595_"><path id="XMLID_2596_" d="m454.307 293.615c8.64-20.2 4.732-44.485-11.753-60.97-3.323-3.323-6.966-6.131-10.826-8.433-12.938-35.064-46.655-60.068-86.213-60.068-39.558 0-73.275 25.004-86.213 60.068-3.86 2.302-7.503 5.11-10.826 8.433-16.485 16.485-20.393 40.771-11.753 60.97-21.5 23.929-20.745 60.774 2.272 83.791 23.802 23.802 62.392 23.802 86.193 0 8.569-8.569 14.038-19.056 16.433-30.078h7.788c2.395 11.021 7.864 21.509 16.433 30.078 23.802 23.802 62.392 23.802 86.193 0 23.017-23.018 23.772-59.863 2.272-83.791z" fill="#ff7a7a"/></g><path id="XMLID_1770_" d="m139.376 358.887h-59.634c-31.97 0-57.886 25.917-57.886 57.886v85.203h151.675 151.675v-85.203c0-31.97-25.917-57.886-57.886-57.886h-60.586z" fill="#fff"/><path id="XMLID_1769_" d="m139.376 358.887h-59.634c-31.97 0-57.886 25.917-57.886 57.886v85.203h151.675 151.675v-85.203c0-31.97-25.917-57.886-57.886-57.886h-60.586z" fill="#a0c8ff"/><path id="XMLID_1768_" d="m202.149 329.315v31.36c0 15.805-12.813 28.618-28.618 28.618-15.805 0-28.618-12.813-28.618-28.618v-31.36z" fill="#d0a084"/><path id="XMLID_1762_" d="m312.952 365.557c-61.879 0-112.042 50.163-112.042 112.042v24.378h144.605 144.605v-70.42c0-36.451-29.549-66-66-66h-46.95z" fill="#b4b1ec"/><path id="XMLID_1761_" d="m400.083 258.104v30.608c0 30.137-24.431 54.568-54.568 54.568-30.137 0-54.568-24.431-54.568-54.568v-30.608h34.446l28.808-10.128 25.669 10.128z" fill="#f4c6af"/><path id="XMLID_1760_" d="m372.799 337.363v29.899c0 15.069-12.215 27.284-27.284 27.284-15.069 0-27.284-12.215-27.284-27.284v-29.899z" fill="#f4c6af"/><path id="XMLID_1738_" d="m230.767 240.316v37.969c0 31.61-25.625 57.236-57.236 57.236-31.61 0-57.236-25.625-57.236-57.236v-37.969h42.906z" fill="#d0a084"/><path id="XMLID_2003_" d="m104.196 164.143h94.285c17.831 0 32.285 14.455 32.285 32.285v43.888h-94.285c-17.831 0-32.285-14.455-32.285-32.285z" fill="#868eaf"/><path id="XMLID_2181_" d="m260.422 420.313c-24.719 0-44.757-20.038-44.757-44.757v-7.822c0-24.719 20.038-44.757 44.757-44.757 24.719 0 44.757 20.038 44.757 44.757v7.822c0 24.718-20.038 44.757-44.757 44.757z" fill="#d0a084"/><path id="XMLID_2211_" d="m238.968 420.313c-40.77 0-73.82 33.05-73.82 73.82v7.844h95.274 95.274v-7.844c0-40.77-33.05-73.82-73.82-73.82h-.598z" fill="#ffd88e"/><g id="XMLID_1139_"><path id="XMLID_1141_" d="m255.988 132.534-55.528-55.529c-15.334-15.334-15.334-40.195 0-55.528 15.334-15.334 40.195-15.334 55.528 0 15.334-15.334 40.195-15.334 55.528 0 15.334 15.334 15.334 40.195 0 55.528z" fill="#ff7a7a"/></g><g id="XMLID_1513_"><g id="XMLID_1514_"><path id="XMLID_1528_" d="m248.917 139.604c1.953 1.952 4.512 2.929 7.071 2.929s5.119-.977 7.071-2.929l55.528-55.528c9.305-9.305 14.429-21.676 14.429-34.835s-5.124-25.53-14.429-34.836c-16.999-16.997-43.431-18.952-62.599-5.866-19.169-13.087-45.601-11.131-62.6 5.866-9.305 9.306-14.429 21.677-14.429 34.836s5.124 25.53 14.429 34.835zm-41.386-111.056c5.706-5.706 13.199-8.558 20.693-8.558 7.493 0 14.989 2.854 20.693 8.558 3.905 3.904 10.236 3.904 14.142 0 11.411-11.411 29.977-11.409 41.386 0 5.527 5.527 8.571 12.876 8.571 20.693 0 7.816-3.044 15.165-8.571 20.692l-48.457 48.457-48.458-48.457c-5.527-5.527-8.571-12.876-8.571-20.692.001-7.817 3.045-15.166 8.572-20.693z"/><path id="XMLID_1516_" d="m469.756 370.827c14.674-24.485 13.241-56.04-4.076-79.109 7.465-23.232 1.47-48.621-16.054-66.144-2.992-2.992-6.267-5.688-9.767-8.044-15.54-38.057-53.02-63.387-94.344-63.387-41.325 0-78.804 25.331-94.344 63.387-3.5 2.356-6.775 5.052-9.766 8.043-.217.217-.425.441-.639.661v-29.806c0-23.316-18.969-42.285-42.285-42.285h-94.286c-5.523 0-10 4.478-10 10v43.887c0 11.502 4.622 21.941 12.1 29.573v40.682c0 22.709 11.328 42.81 28.618 54.989v15.613h-55.171c-37.432 0-67.886 30.454-67.886 67.887v85.203c0 5.522 4.477 10 10 10h193.566c5.523 0 10-4.478 10-10s-4.477-10-10-10h-40.238c1.141-34.196 29.315-61.664 63.784-61.664h42.909c34.469 0 62.643 27.468 63.784 61.664h-40.238c-5.523 0-10 4.478-10 10s4.477 10 10 10h184.697c5.523 0 10-4.478 10-10v-70.42c0-24.794-11.938-46.849-30.364-60.73zm-223.839-81.145c-7.341-17.163-3.561-36.775 9.63-49.966 2.665-2.666 5.652-4.992 8.878-6.917 1.964-1.171 3.467-2.98 4.259-5.126 11.813-32.018 42.689-53.529 76.831-53.529 34.141 0 65.018 21.512 76.832 53.529.792 2.146 2.295 3.955 4.26 5.127 3.224 1.922 6.21 4.249 8.876 6.916 13.191 13.19 16.971 32.803 9.629 49.966-1.531 3.579-.846 7.721 1.756 10.616 15.179 16.895 17.07 41.824 5.461 60.709-8.729-3.503-18.243-5.451-28.209-5.451h-41.321v-14.179c16.492-11.709 27.284-30.945 27.284-52.666v-30.607c0-5.522-4.477-10-10-10h-18.131c-6.183 0-11.979-2.64-16.041-7.099 2.517-5.652 3.928-11.901 3.928-18.477 0-5.522-4.477-10-10-10s-10 4.478-10 10c0 14.103-11.473 25.576-25.576 25.576h-33.316c-5.523 0-10 4.478-10 10v30.607c0 12.055 3.329 23.344 9.104 33.01-8.548-5.523-18.716-8.745-29.629-8.745-9.959 0-19.298 2.686-27.353 7.352 2.087-7.328 5.831-14.175 11.092-20.031 2.602-2.895 3.287-7.036 1.756-10.615zm-20.251 85.874v-7.822c0-19.165 15.592-34.757 34.757-34.757s34.757 15.592 34.757 34.757v7.822c0 19.165-15.592 34.757-34.757 34.757s-34.757-15.592-34.757-34.757zm98.598-107.452c11.273 0 21.595-4.123 29.56-10.929 7.573 6.917 17.559 10.929 28.128 10.929h8.131v20.607c0 24.575-19.993 44.568-44.568 44.568s-44.568-19.993-44.568-44.568v-20.607zm3.967 82.808c5.505 1.532 11.297 2.368 17.284 2.368s11.779-.836 17.284-2.368v16.35c0 9.53-7.753 17.284-17.284 17.284-9.53 0-17.284-7.754-17.284-17.284zm-214.035-176.768h84.286c12.288 0 22.285 9.997 22.285 22.285v33.888h-84.285c-12.289 0-22.286-9.997-22.286-22.286zm12.099 74.924c3.264.811 6.674 1.248 10.186 1.248h84.285v27.969c0 26.046-21.19 47.236-47.236 47.236s-47.235-21.19-47.235-47.236zm47.236 96.453c6.459 0 12.701-.934 18.618-2.643v17.797c0 10.266-8.352 18.618-18.618 18.618s-18.618-8.353-18.618-18.618v-17.797c5.917 1.709 12.159 2.643 18.618 2.643zm-18.328 146.456h-123.347v-75.203c0-26.405 21.481-47.887 47.886-47.887h56.058c3.775 17.362 19.255 30.407 37.731 30.407 13.61 0 25.588-7.083 32.468-17.75 1.296 11.859 6.389 22.592 14.042 30.95-36.453 8.45-63.852 40.73-64.838 79.483zm324.917 0h-114.478c-.986-38.752-28.386-71.033-64.838-79.482 6.444-7.039 11.071-15.763 13.147-25.425 6.605 10.488 18.281 17.476 31.564 17.476 17.707 0 32.56-12.412 36.342-28.989h42.263c30.878 0 56 25.121 56 56z"/><path id="XMLID_1515_" d="m260.428 491.977c-2.64 0-5.21 1.069-7.08 2.93-1.86 1.86-2.93 4.44-2.93 7.07s1.07 5.21 2.93 7.069c1.87 1.86 4.44 2.931 7.08 2.931 2.63 0 5.2-1.07 7.07-2.931 1.86-1.859 2.92-4.439 2.92-7.069s-1.06-5.21-2.92-7.07c-1.87-1.861-4.45-2.93-7.07-2.93z"/></g></g></g></svg>